<svg width="356" height="344" viewBox="0 0 356 344" fill="none" xmlns="http://www.w3.org/2000/svg">
<path d="M144.494 29.0391H26.8828V191.244H144.494V29.0391Z" fill="#E0E0E0"/>
<path d="M138.013 33.0918H31.9043V186.346H138.013V33.0918Z" fill="#FAFAFA" stroke="#FAFAFA" stroke-miterlimit="10"/>
<path d="M139.97 77.0215H31.4082V79.4413H139.97V77.0215Z" fill="#E0E0E0"/>
<path d="M83.75 77.0215V187.025H86.1699V77.0215H83.75Z" fill="#E0E0E0"/>
<path d="M163.207 13.7734H8.77539V16.7817H163.207V13.7734Z" fill="#E0E0E0"/>
<path d="M8.77539 24.1074C8.77539 24.1074 10.1842 186.312 8.81683 186.312H39.3136V24.1074H8.77539Z" fill="#EBEBEB"/>
<path d="M16.4073 27.6057C16.194 25.3611 16.122 23.1053 16.1918 20.8517C16.122 18.5981 16.194 16.3423 16.4073 14.0977C16.6255 16.3419 16.6975 18.5981 16.6227 20.8517C16.6975 23.1053 16.6255 25.3615 16.4073 27.6057Z" fill="#E0E0E0"/>
<path d="M12.2968 27.6057C12.0785 25.3615 12.0066 23.1053 12.0813 20.8517C12.0066 18.5981 12.0785 16.3419 12.2968 14.0977C12.5101 16.3423 12.582 18.5981 12.5122 20.8517C12.582 23.1053 12.5101 25.3611 12.2968 27.6057Z" fill="#E0E0E0"/>
<path d="M21.1405 27.6057C20.9223 25.3615 20.8503 23.1053 20.9251 20.8517C20.8503 18.5981 20.9223 16.3419 21.1405 14.0977C21.3538 16.3423 21.4258 18.5981 21.356 20.8517C21.4258 23.1053 21.3538 25.3611 21.1405 27.6057Z" fill="#E0E0E0"/>
<path d="M25.8643 27.6057C25.651 25.3611 25.579 23.1053 25.6488 20.8517C25.579 18.5981 25.651 16.3423 25.8643 14.0977C26.0825 16.3419 26.1545 18.5981 26.0797 20.8517C26.1545 23.1053 26.0825 25.3615 25.8643 27.6057Z" fill="#E0E0E0"/>
<path d="M30.5948 27.6057C30.3815 25.3611 30.3095 23.1053 30.3793 20.8517C30.3095 18.5981 30.3815 16.3423 30.5948 14.0977C30.808 16.3423 30.88 18.5981 30.8102 20.8517C30.88 23.1053 30.808 25.3611 30.5948 27.6057Z" fill="#E0E0E0"/>
<path d="M35.1444 27.6057C34.9262 25.3615 34.8542 23.1053 34.929 20.8517C34.8542 18.5981 34.9262 16.3419 35.1444 14.0977C35.3577 16.3423 35.4297 18.5981 35.3599 20.8517C35.4297 23.1053 35.3577 25.3611 35.1444 27.6057Z" fill="#E0E0E0"/>
<path d="M131.648 24.1074C131.648 24.1074 133.057 186.312 131.698 186.312H162.195V24.1074H131.648Z" fill="#EBEBEB"/>
<path d="M139.29 27.6057C139.077 25.3611 139.005 23.1053 139.075 20.8517C139.005 18.5981 139.077 16.3423 139.29 14.0977C139.503 16.3423 139.575 18.5981 139.506 20.8517C139.575 23.1053 139.503 25.3611 139.29 27.6057Z" fill="#E0E0E0"/>
<path d="M135.171 27.6057C134.958 25.3611 134.886 23.1053 134.955 20.8517C134.886 18.5981 134.958 16.3423 135.171 14.0977C135.389 16.3419 135.461 18.5981 135.386 20.8517C135.461 23.1053 135.389 25.3615 135.171 27.6057Z" fill="#E0E0E0"/>
<path d="M144.021 27.6057C143.803 25.3615 143.731 23.1053 143.806 20.8517C143.731 18.5981 143.803 16.3419 144.021 14.0977C144.235 16.3423 144.307 18.5981 144.237 20.8517C144.307 23.1053 144.235 25.3611 144.021 27.6057Z" fill="#E0E0E0"/>
<path d="M148.745 27.6057C148.532 25.3611 148.46 23.1053 148.53 20.8517C148.46 18.5981 148.532 16.3423 148.745 14.0977C148.958 16.3423 149.03 18.5981 148.961 20.8517C149.03 23.1053 148.958 25.3611 148.745 27.6057Z" fill="#E0E0E0"/>
<path d="M153.476 27.6057C153.258 25.3615 153.186 23.1053 153.261 20.8517C153.186 18.5981 153.258 16.3419 153.476 14.0977C153.69 16.3423 153.762 18.5981 153.692 20.8517C153.762 23.1053 153.69 25.3611 153.476 27.6057Z" fill="#E0E0E0"/>
<path d="M158.019 27.6057C157.805 25.3611 157.733 23.1053 157.803 20.8517C157.733 18.5981 157.805 16.3423 158.019 14.0977C158.237 16.3419 158.309 18.5981 158.234 20.8517C158.309 23.1053 158.237 25.3615 158.019 27.6057Z" fill="#E0E0E0"/>
<path d="M249.783 317.498V341.854H285.401H324.683V317.498H249.783Z" fill="#EBEBEB"/>
<path d="M246.643 310.695V317.499H327.302V310.695H285.402H246.643Z" fill="#F5F5F5"/>
<path d="M286.975 341.855H324.682V317.499H327.3V310.695H285.4V316.869L286.975 341.855Z" fill="#E0E0E0"/>
<path d="M275.448 321.426H260.258V325.089H275.448V321.426Z" fill="#E0E0E0"/>
<path d="M277.811 329.68H258.303V337.42H277.811V329.68Z" fill="#FAFAFA"/>
<path d="M268.819 283.985L268.711 274.828L300.791 277.571L301.793 286.629L268.819 283.985Z" fill="#EBEBEB"/>
<path d="M275.742 278.994L275.602 280.637L295.666 282.353L295.807 280.71L275.742 278.994Z" fill="#E0E0E0"/>
<path d="M264.991 275.292L264.982 266.135L297.037 269.218L297.849 277.405L264.991 275.292Z" fill="#E0E0E0"/>
<path d="M264.981 267.377L264.965 273.559L296.199 275.855L295.677 270.161L264.981 267.377Z" fill="white"/>
<path d="M293.829 272.531C293.452 272.571 293.072 272.571 292.694 272.531L289.628 272.291C287.034 272.067 283.454 271.736 279.509 271.338C275.565 270.94 271.993 270.551 269.407 270.253L266.349 269.871C265.97 269.844 265.595 269.777 265.23 269.672C265.608 269.638 265.988 269.638 266.366 269.672L269.432 269.913C272.026 270.137 275.598 270.476 279.551 270.874C283.504 271.272 287.075 271.653 289.653 271.96L292.711 272.333C293.09 272.36 293.464 272.427 293.829 272.531Z" fill="#E0E0E0"/>
<path d="M293.762 273.304C293.382 273.345 292.998 273.345 292.618 273.304L289.519 273.154C286.908 273.013 283.295 272.79 279.309 272.508C275.323 272.226 271.709 271.961 269.099 271.737L266.008 271.455C265.627 271.442 265.249 271.387 264.881 271.29C265.261 271.252 265.644 271.252 266.024 271.29L269.124 271.431C271.743 271.572 275.356 271.804 279.342 272.077C283.328 272.35 286.933 272.632 289.543 272.856L292.635 273.138C293.014 273.16 293.392 273.215 293.762 273.304Z" fill="#E0E0E0"/>
<path d="M269.182 292.421L269.066 283.264L301.154 285.982L302.066 294.161L269.182 292.421Z" fill="#E0E0E0"/>
<path d="M272.721 292.611C272.448 291.124 272.318 289.615 272.332 288.103C272.197 286.597 272.211 285.081 272.373 283.578C272.643 285.066 272.773 286.575 272.763 288.086C272.893 289.593 272.879 291.108 272.721 292.611Z" fill="#F5F5F5"/>
<path d="M273.932 283.678C274.176 285.165 274.282 286.671 274.247 288.178C274.352 289.681 274.31 291.191 274.123 292.686C273.879 291.199 273.774 289.692 273.808 288.186C273.703 286.683 273.745 285.173 273.932 283.678Z" fill="#F5F5F5"/>
<path d="M276.848 287.705C282.441 288.327 289.013 288.683 294.698 289.188L276.848 287.705Z" fill="white"/>
<path d="M294.698 289.189C293.822 289.23 292.944 289.208 292.071 289.123C290.455 289.031 288.226 288.89 285.756 288.708C283.287 288.526 281.058 288.319 279.442 288.128C278.566 288.068 277.697 287.927 276.848 287.705C277.725 287.679 278.603 287.718 279.475 287.821L285.79 288.277C288.276 288.46 290.488 288.65 292.096 288.816C292.973 288.862 293.844 288.987 294.698 289.189Z" fill="#F5F5F5"/>
<path d="M297.045 293.897C296.766 292.55 296.627 291.179 296.631 289.803C296.485 288.44 296.485 287.065 296.631 285.701C296.911 287.045 297.049 288.414 297.045 289.787C297.19 291.153 297.19 292.531 297.045 293.897Z" fill="#F5F5F5"/>
<path d="M299.025 293.997C298.672 292.661 298.464 291.291 298.404 289.911C298.197 288.54 298.133 287.152 298.213 285.768C298.561 287.101 298.769 288.468 298.835 289.845C299.041 291.219 299.105 292.61 299.025 293.997Z" fill="#F5F5F5"/>
<path d="M281.613 289.762C285.144 290.002 287.837 290.176 290.655 290.242L281.613 289.762Z" fill="white"/>
<path d="M290.655 290.241C289.147 290.383 287.629 290.383 286.122 290.241C284.608 290.232 283.098 290.08 281.613 289.786C283.121 289.639 284.639 289.639 286.146 289.786C287.66 289.797 289.169 289.95 290.655 290.241Z" fill="#F5F5F5"/>
<path d="M271.337 310.305L270.732 301.164L302.92 302.183L304.262 310.297L271.337 310.305Z" fill="#E0E0E0"/>
<path d="M272.614 309.154L303.931 308.706L303.061 303.021L272.025 302.449L272.614 309.154Z" fill="#FAFAFA"/>
<path d="M272.216 301.346L271.918 292.197L304.047 294.294L305.116 302.44L272.216 301.346Z" fill="#EBEBEB"/>
<path d="M279.027 296.198L278.92 297.844L299.015 299.15L299.122 297.505L279.027 296.198Z" fill="#E0E0E0"/>
<path d="M303.383 305.358C302.976 305.432 302.562 305.462 302.149 305.449L298.834 305.532C295.999 305.582 292.096 305.623 287.779 305.64C283.461 305.657 279.558 305.64 276.723 305.64L273.409 305.59C272.995 305.603 272.582 305.575 272.174 305.507C272.579 305.439 272.99 305.409 273.4 305.416L276.757 305.333C279.583 305.284 283.494 305.251 287.812 305.234C292.129 305.217 296.041 305.234 298.867 305.234L302.182 305.292C302.583 305.279 302.985 305.302 303.383 305.358Z" fill="#E0E0E0"/>
<path d="M303.75 307.131C303.339 307.198 302.922 307.223 302.506 307.206H299.134C296.283 307.206 292.346 307.206 288.004 307.115C283.661 307.024 279.717 306.982 276.874 306.899L273.485 306.8C273.071 306.808 272.657 306.775 272.25 306.7C272.659 306.64 273.072 306.618 273.485 306.634H276.858C279.708 306.634 283.645 306.634 287.996 306.725C292.346 306.816 296.283 306.866 299.125 306.941L302.498 307.057C302.917 307.05 303.335 307.075 303.75 307.131Z" fill="#E0E0E0"/>
<path d="M32.7508 249.228C28.7232 249.875 26.9498 254.822 27.2813 258.891C27.6128 262.96 29.3033 266.922 28.8558 270.974C28.284 276.129 24.3973 280.479 23.9415 285.634C23.4112 291.717 27.7122 297.12 28.9967 303.087C29.6183 305.996 29.5354 309.07 30.6542 311.838C31.5797 314.19 33.2909 316.149 35.4971 317.381C37.7033 318.614 40.2684 319.045 42.7563 318.601C45.2443 318.157 47.5016 316.864 49.1448 314.944C50.7879 313.024 51.7155 310.594 51.7699 308.067C51.861 303.393 48.9771 298.993 49.2837 294.327C49.5489 290.888 51.5627 287.623 51.1318 284.2C50.618 280.123 46.839 277.223 45.5048 273.336C44.1705 269.449 45.455 265.165 44.991 261.079C44.1622 253.753 40.1015 248.648 32.7508 249.228Z" fill="#F5F5F5"/>
<path d="M12.1886 284.715C11.5008 291.502 14.509 299.491 17.9896 305.358C21.5279 311.257 26.8507 315.877 33.1883 318.551C33.901 318.85 34.7877 319.098 35.3844 318.609C35.596 318.376 35.755 318.1 35.8508 317.799C35.9466 317.499 35.9769 317.182 35.9396 316.869C35.9874 309.661 33.6979 302.632 29.4145 296.835C25.131 291.038 19.0842 286.786 12.1803 284.715" fill="#EBEBEB"/>
<path d="M41.7664 332.747C41.6898 332.627 41.6259 332.5 41.5758 332.366C41.4515 332.076 41.2858 331.711 41.0952 331.256C40.6808 330.286 40.0758 328.894 39.2968 327.178C37.2741 322.715 35.0226 318.358 32.5511 314.126C30.0736 309.898 27.3824 305.799 24.4877 301.845C23.3772 300.328 22.4656 299.11 21.8192 298.281L21.0899 297.311C20.9972 297.202 20.9167 297.082 20.8496 296.955C20.9606 297.045 21.0608 297.148 21.1479 297.262L21.9352 298.182C22.6148 299.01 23.5927 300.179 24.7114 301.679C27.6783 305.599 30.4096 309.692 32.8909 313.936C35.3594 318.178 37.5733 322.565 39.5206 327.071C40.2664 328.794 40.8383 330.211 41.178 331.214C41.3521 331.678 41.4847 332.043 41.6007 332.358C41.6757 332.478 41.7316 332.61 41.7664 332.747Z" fill="#E0E0E0"/>
<path d="M37.3998 268.016C37.3998 268.016 37.3998 268.239 37.4744 268.67C37.549 269.101 37.549 269.748 37.607 270.535C37.7147 272.192 37.8639 274.538 38.0462 277.413C38.4192 283.214 38.933 291.253 39.5545 300.112C40.176 308.971 40.7976 316.993 41.2119 322.802C41.4274 325.678 41.6097 328.015 41.734 329.672C41.792 330.459 41.8335 331.081 41.8666 331.545C41.8867 331.763 41.8867 331.982 41.8666 332.2C41.8132 331.988 41.7799 331.771 41.7672 331.553L41.5683 329.689C41.4108 328.031 41.1954 325.694 40.9219 322.819C40.3998 317.018 39.7451 309.004 39.1236 300.137C38.502 291.269 38.0214 283.247 37.7313 277.43C37.5904 274.554 37.4827 272.209 37.4081 270.543C37.4081 269.756 37.3584 269.134 37.3418 268.67C37.341 268.451 37.3605 268.232 37.3998 268.016Z" fill="#E0E0E0"/>
<path d="M31.1504 323.066H48.1557V335.547C48.1557 337.712 47.2957 339.788 45.7648 341.319C44.234 342.85 42.1577 343.71 39.9928 343.71C37.9033 343.711 35.893 342.91 34.376 341.473C32.8589 340.036 31.9507 338.073 31.8382 335.986L31.1504 323.066Z" fill="#E0E0E0"/>
<path d="M278.349 27.2656L273.857 68.9335H331.395L336.169 27.2656H278.349Z" fill="#EBEBEB"/>
<path d="M280.719 30.2559L276.352 66.7194H328.279L332.481 30.2559H280.719Z" fill="#FAFAFA"/>
<path d="M289.453 36.3887L286.768 60.5872H319.535L321.217 36.3887H289.453Z" fill="#E0E0E0"/>
<path d="M334.113 45.2064L345.997 69.1066L331.395 68.9326L334.295 43.6484" fill="#F5F5F5"/>
<path d="M346.195 73.8965H341.016V86.8576H346.195V73.8965Z" fill="#E0E0E0"/>
<path d="M270.392 73.8965H265.213V86.8576H270.392V73.8965Z" fill="#E0E0E0"/>
<path d="M355.676 69.1895H254.572V74.659H355.676V69.1895Z" fill="#E0E0E0"/>
<path d="M339.832 342.112C339.832 342.228 263.739 342.327 169.945 342.327C76.1508 342.327 0 342.228 0 342.112C0 341.996 76.0762 341.896 169.945 341.896C263.814 341.896 339.832 341.988 339.832 342.112Z" fill="#263238"/>
<path d="M243.395 222.113C229.1 212.169 225.851 193.589 226.423 176.924C226.514 174.147 226.207 171.214 227.533 168.769C228.859 166.324 231.942 164.667 234.428 165.835C236.5 166.805 237.395 169.208 238.572 171.197C240.115 173.847 242.376 176.008 245.094 177.429C246.867 178.349 249.055 178.912 250.804 177.943C253.207 176.625 253.489 173.31 253.472 170.542L253.373 155.07C253.373 152.311 253.373 149.485 254.201 146.858C255.03 144.231 256.961 141.794 259.588 141.057C262.215 140.319 265.48 141.836 266.035 144.546C266.139 145.689 266.164 146.838 266.11 147.985C266.193 149.137 266.723 150.405 267.817 150.728C268.911 151.051 270.03 150.264 270.85 149.46C273.709 146.667 275.649 143.062 277.48 139.515C279.312 135.968 281.052 132.272 283.637 129.223C286.223 126.173 289.811 123.761 293.773 123.538C297.734 123.314 301.96 125.759 302.963 129.645C303.966 133.532 301.662 137.485 299.176 140.634C295.502 145.318 291.17 149.446 286.314 152.891C285.372 153.424 284.623 154.242 284.176 155.228C283.571 157.076 285.32 158.907 287.143 159.512C289.206 160.2 291.444 159.985 293.599 160.241C295.753 160.498 298.09 161.443 298.911 163.482C300.038 166.308 297.676 169.283 295.347 171.214C290.686 175.103 285.391 178.162 279.693 180.255C277.654 181.001 275.549 181.647 273.892 183.081C272.234 184.515 271.256 186.992 272.234 188.948C273.212 190.904 275.773 191.517 277.903 191.119C280.032 190.722 281.947 189.57 283.977 188.807C287.773 187.374 292.687 187.631 295.123 190.921C296.723 193.075 296.864 196.083 296.052 198.661C295.121 201.195 293.696 203.52 291.858 205.498C285.833 212.735 277.994 218.243 269.143 221.459C260.326 224.517 252.154 225.345 243.395 222.138" fill="#0B56A4"/>
<path d="M298.927 125.834C298.845 125.926 298.757 126.012 298.662 126.091L297.833 126.828C297.112 127.467 296.043 128.411 294.701 129.663C290.9 133.196 287.369 137.007 284.135 141.066C282.071 143.635 279.933 146.535 277.696 149.693C275.458 152.85 273.096 156.256 270.743 159.919C268.249 163.729 265.97 167.674 263.914 171.737C262.845 173.85 261.9 176.063 260.922 178.325C259.945 180.587 258.983 182.866 257.989 185.178C254.212 193.864 250.922 202.753 248.135 211.805C245.889 219.21 244.343 226.81 243.519 234.504C242.985 239.694 242.899 244.92 243.262 250.125C243.412 251.965 243.552 253.398 243.677 254.36C243.735 254.824 243.776 255.188 243.809 255.462C243.821 255.589 243.821 255.716 243.809 255.843C243.773 255.721 243.745 255.596 243.727 255.47C243.685 255.197 243.627 254.84 243.553 254.376C243.387 253.415 243.213 251.99 243.039 250.142C242.599 244.926 242.633 239.68 243.138 234.47C243.914 226.741 245.429 219.104 247.663 211.664C250.428 202.588 253.712 193.679 257.5 184.98L260.442 178.118C261.411 175.864 262.373 173.634 263.442 171.488C265.516 167.412 267.813 163.454 270.32 159.629C272.69 155.966 275.077 152.577 277.323 149.419C279.569 146.262 281.748 143.37 283.828 140.817C287.107 136.779 290.701 133.008 294.577 129.538C295.936 128.312 297.063 127.384 297.775 126.77L298.604 126.074C298.704 125.984 298.812 125.904 298.927 125.834Z" fill="#263238"/>
<path d="M263.624 171.487C263.489 171.106 263.398 170.711 263.351 170.31C263.21 169.547 263.036 168.429 262.837 167.053C262.447 164.302 262.008 160.481 261.602 156.28C261.196 152.078 260.699 148.258 260.268 145.506C260.061 144.139 259.878 143.02 259.738 142.266C259.643 141.872 259.59 141.469 259.58 141.064C259.743 141.436 259.86 141.825 259.928 142.225C260.127 142.979 260.367 144.073 260.624 145.44C261.146 148.183 261.668 151.995 262.108 156.213C262.547 160.432 262.936 164.144 263.193 166.987C263.334 168.28 263.45 169.373 263.55 170.252C263.621 170.659 263.646 171.074 263.624 171.487Z" fill="#263238"/>
<path d="M299.177 164.84C298.708 164.943 298.231 165.001 297.752 165.014C296.84 165.097 295.522 165.205 293.898 165.395C290.633 165.743 286.15 166.39 281.235 167.31C276.321 168.229 271.929 169.315 268.763 170.144C267.172 170.55 265.896 170.915 265.009 171.163C264.56 171.323 264.097 171.437 263.625 171.503C264.051 171.289 264.495 171.112 264.951 170.973C265.821 170.666 267.081 170.243 268.664 169.787C271.821 168.859 276.23 167.765 281.161 166.821C285.365 166.012 289.608 165.42 293.873 165.047C295.531 164.906 296.84 164.848 297.76 164.832C298.232 164.793 298.706 164.796 299.177 164.84Z" fill="#263238"/>
<path d="M248.127 211.008C248.026 210.877 247.945 210.732 247.887 210.577L247.282 209.292C246.751 208.174 246.038 206.533 245.185 204.494C243.469 200.417 241.273 194.715 238.936 188.392C236.599 182.069 234.47 176.351 232.837 172.241C232.008 170.252 231.378 168.611 230.898 167.384C230.682 166.854 230.517 166.423 230.376 166.067C230.303 165.915 230.252 165.753 230.227 165.586C230.328 165.719 230.409 165.867 230.467 166.025C230.633 166.365 230.832 166.796 231.072 167.31C231.602 168.428 232.315 170.069 233.169 172.108C234.884 176.177 237.08 181.879 239.417 188.21C241.754 194.541 243.884 200.251 245.516 204.353L247.456 209.21C247.671 209.74 247.837 210.179 247.978 210.536C248.049 210.685 248.099 210.844 248.127 211.008Z" fill="#263238"/>
<path d="M295.389 195.777C295.243 195.863 295.087 195.93 294.925 195.976L293.549 196.432L288.494 198.089C284.218 199.473 278.334 201.462 271.845 203.658C265.356 205.855 259.414 207.802 255.138 209.087C252.983 209.733 251.243 210.238 250.025 210.57L248.624 210.935C248.309 211.017 248.135 211.051 248.127 211.026C248.276 210.942 248.434 210.878 248.599 210.835L249.975 210.379L255.03 208.722C259.306 207.338 265.182 205.349 271.679 203.153C278.176 200.957 284.11 199.009 288.386 197.725C290.532 197.078 292.281 196.565 293.491 196.241L294.891 195.877C295.052 195.822 295.219 195.788 295.389 195.777Z" fill="#263238"/>
<path d="M254.782 218.683C256.23 218.682 257.651 218.298 258.903 217.57C260.155 216.843 261.192 215.797 261.909 214.539C262.604 213.271 263.039 211.877 263.188 210.438C263.338 208.999 263.199 207.545 262.779 206.161C262.414 204.877 261.752 203.542 260.525 203.012C259.937 202.799 259.302 202.747 258.687 202.863C258.072 202.978 257.499 203.255 257.028 203.667C256.094 204.502 255.397 205.568 255.006 206.758C253.489 210.769 252.768 214.912 254.782 218.691" fill="#455A64"/>
<path d="M253.24 226.381C256.292 226.274 259.327 226.894 262.092 228.191C264.857 229.488 267.274 231.424 269.143 233.84C270.08 235.074 270.875 236.773 270.088 238.107C269.301 239.442 267.411 239.574 265.886 239.309C262.701 238.713 259.763 237.185 257.446 234.92C255.128 232.654 253.535 229.752 252.867 226.58" fill="#455A64"/>
<path d="M290.341 215.657C289.565 214.621 288.586 213.753 287.466 213.105C286.345 212.457 285.104 212.043 283.819 211.887C281.242 211.59 278.631 211.888 276.187 212.757C271.43 214.29 267.071 218.052 263.756 221.823C268.165 225.196 274.595 224.873 277.844 224.508C282.982 223.928 291.932 219.76 290.275 215.657" fill="#455A64"/>
<path d="M241.994 226.821C242.809 226.626 243.612 226.383 244.397 226.092C247.302 224.848 250.026 223.217 252.494 221.244C254.979 219.231 256.872 216.581 257.972 213.578C258.284 212.664 258.484 211.715 258.568 210.752C258.623 210.401 258.623 210.043 258.568 209.691C258.346 210.96 258.028 212.209 257.615 213.429C256.438 216.306 254.557 218.842 252.146 220.805C249.705 222.737 247.053 224.386 244.24 225.719" fill="#263238"/>
<path d="M241.888 226.837L246.487 225.818C250.374 224.947 255.744 223.762 261.686 222.503C267.628 221.243 273.031 220.232 276.942 219.486L281.575 218.591C282.138 218.509 282.693 218.376 283.232 218.193C282.654 218.211 282.078 218.272 281.509 218.376C280.406 218.525 278.815 218.773 276.851 219.097C272.915 219.743 267.503 220.754 261.553 221.956C255.603 223.157 250.233 224.442 246.371 225.403C244.44 225.884 242.882 226.29 241.805 226.588" fill="#263238"/>
<path d="M264.37 234.138C264.228 233.836 264.041 233.556 263.815 233.31C263.59 232.987 263.341 232.682 263.069 232.398C262.726 232.001 262.361 231.625 261.975 231.271C260.985 230.335 259.902 229.502 258.743 228.785C257.319 227.916 255.805 227.205 254.227 226.663C252.635 226.148 250.993 225.803 249.329 225.636C247.972 225.51 246.606 225.524 245.252 225.677C244.73 225.723 244.213 225.804 243.702 225.917C243.314 225.98 242.932 226.071 242.558 226.191C241.937 226.373 241.812 226.605 241.821 226.638C242.965 226.387 244.121 226.196 245.285 226.067C246.616 225.977 247.953 226.005 249.279 226.149C252.53 226.505 255.667 227.553 258.478 229.224C259.623 229.907 260.705 230.692 261.71 231.569C263.434 233.053 264.295 234.205 264.37 234.138Z" fill="#263238"/>
<path d="M226.463 272.399L134.037 271.969C131.393 271.957 128.778 271.424 126.34 270.401C123.903 269.379 121.69 267.886 119.83 266.008C117.969 264.131 116.496 261.905 115.496 259.458C114.495 257.011 113.986 254.391 113.998 251.748L114.976 20.0469C114.988 17.4023 115.521 14.786 116.544 12.3474C117.567 9.9087 119.06 7.69543 120.939 5.83392C122.817 3.97241 125.044 2.49912 127.492 1.49817C129.94 0.497218 132.561 -0.011791 135.205 0.000207276L227.624 0.43114C232.961 0.455266 238.07 2.59808 241.828 6.38841C245.585 10.1787 247.684 15.3063 247.662 20.6435L246.684 252.345C246.674 254.989 246.143 257.606 245.122 260.046C244.1 262.486 242.608 264.7 240.73 266.562C238.852 268.425 236.625 269.899 234.177 270.901C231.73 271.902 229.108 272.411 226.463 272.399Z" fill="#263238"/>
<path d="M227.491 8.42828L209.574 8.34541C208.99 8.35511 208.414 8.47992 207.878 8.71269C207.342 8.94546 206.857 9.28161 206.452 9.70191C206.046 10.1222 205.727 10.6184 205.514 11.162C205.3 11.7057 205.196 12.2862 205.207 12.8702V16.1188C205.218 16.7032 205.113 17.2841 204.9 17.8282C204.686 18.3723 204.368 18.8691 203.962 19.29C203.557 19.711 203.072 20.0479 202.536 20.2816C202 20.5153 201.424 20.6411 200.839 20.6519L165.909 20.4861C164.729 20.4536 163.611 19.9546 162.798 19.0987C161.986 18.2428 161.546 17.0996 161.575 15.9199L161.608 12.6879C161.637 11.5081 161.197 10.365 160.384 9.50906C159.572 8.65312 158.453 8.1542 157.274 8.12166H150.975L135.288 8.04707C133.431 8.03724 131.591 8.39439 129.874 9.09799C128.156 9.80158 126.594 10.8378 125.278 12.1469C123.962 13.4561 122.917 15.0125 122.205 16.7267C121.492 18.4408 121.125 20.2789 121.125 22.1353L120.172 248.201C120.163 250.052 120.519 251.886 121.22 253.599C121.92 255.312 122.951 256.871 124.254 258.185C125.557 259.5 127.106 260.544 128.813 261.26C130.52 261.976 132.351 262.348 134.202 262.355L226.438 262.786C228.295 262.796 230.135 262.439 231.853 261.735C233.571 261.032 235.132 259.996 236.449 258.686C237.765 257.377 238.809 255.821 239.522 254.107C240.234 252.393 240.601 250.555 240.601 248.698L241.563 22.5413C241.566 20.6905 241.204 18.8573 240.499 17.1462C239.793 15.4352 238.758 13.8799 237.451 12.5693C236.144 11.2586 234.592 10.2183 232.883 9.50781C231.174 8.79728 229.342 8.43046 227.491 8.42828Z" fill="#FAFAFA"/>
<path d="M194.574 35.2617H170.781V39.6291H194.574V35.2617Z" fill="#455A64"/>
<path d="M142.697 72.0488C142.887 72.0534 143.076 72.0784 143.261 72.1234C143.431 72.0783 143.607 72.0533 143.783 72.0488H142.697Z" fill="#455A64"/>
<path d="M149.218 60.0652C148.781 59.4613 148.249 58.9324 147.643 58.4989C146.373 57.5621 144.837 57.0566 143.259 57.0566C141.681 57.0566 140.145 57.5621 138.875 58.4989C138.267 58.9322 137.732 59.4611 137.292 60.0652C136.859 60.6321 136.517 61.2643 136.281 61.9381C135.849 63.1071 135.717 64.3658 135.896 65.5993C136.076 66.8327 136.561 68.0014 137.309 68.9987C137.4 69.123 137.5 69.2308 137.591 69.3385C137.898 68.3489 138.486 67.4697 139.284 66.8078C140.081 66.1458 141.053 65.7295 142.082 65.6093C141.439 65.3281 140.892 64.864 140.511 64.2746C140.129 63.6852 139.929 62.9966 139.936 62.2944C139.904 61.8327 139.967 61.3693 140.121 60.9329C140.275 60.4966 140.518 60.0967 140.834 59.7582C141.149 59.4196 141.531 59.1497 141.955 58.9651C142.38 58.7805 142.838 58.6852 143.301 58.6852C143.763 58.6852 144.221 58.7805 144.646 58.9651C145.07 59.1497 145.452 59.4196 145.768 59.7582C146.083 60.0967 146.326 60.4966 146.48 60.9329C146.635 61.3693 146.698 61.8327 146.665 62.2944C146.672 62.9954 146.472 63.6829 146.093 64.272C145.713 64.8611 145.168 65.326 144.527 65.6093C145.545 65.7318 146.505 66.1494 147.288 66.8105C148.071 67.4717 148.644 68.3475 148.936 69.3302L149.209 68.9987C149.957 68.0014 150.443 66.8327 150.622 65.5993C150.802 64.3658 150.669 63.1071 150.237 61.9381C149.995 61.2654 149.651 60.6338 149.218 60.0652Z" fill="#FAFAFA"/>
<path d="M150.653 61.7899C150.407 61.0722 150.049 60.398 149.592 59.7927C149.13 59.1563 148.571 58.597 147.935 58.1353C146.585 57.1342 144.949 56.5938 143.269 56.5938C141.588 56.5938 139.953 57.1342 138.603 58.1353C137.964 58.5942 137.405 59.154 136.946 59.7927C136.489 60.3997 136.128 61.0733 135.877 61.7899C135.405 63.1185 135.296 64.5489 135.562 65.9335C135.79 67.1408 136.301 68.2769 137.053 69.2484C138.133 70.6482 139.665 71.6296 141.388 72.0246C141.846 72.1345 142.316 72.1901 142.788 72.1903C142.95 72.212 143.115 72.212 143.277 72.1903C143.092 72.1454 142.904 72.1204 142.714 72.1158H143.799C143.623 72.1202 143.448 72.1452 143.277 72.1903C143.439 72.212 143.604 72.212 143.766 72.1903C144.238 72.1901 144.708 72.1345 145.167 72.0246C146.887 71.6291 148.416 70.6477 149.492 69.2484C150.251 68.2795 150.765 67.1427 150.992 65.9335C151.254 64.5469 151.136 63.1155 150.653 61.7899ZM150.578 65.8506C150.37 67.0098 149.89 68.1032 149.178 69.0412L148.904 69.3727C148.612 68.39 148.039 67.5142 147.256 66.853C146.473 66.1918 145.513 65.7743 144.495 65.6518C145.137 65.3685 145.681 64.9036 146.061 64.3145C146.441 63.7254 146.64 63.0379 146.633 62.3369C146.666 61.8752 146.603 61.4118 146.448 60.9754C146.294 60.5391 146.052 60.1392 145.736 59.8007C145.42 59.4621 145.038 59.1922 144.614 59.0076C144.19 58.823 143.732 58.7277 143.269 58.7277C142.806 58.7277 142.348 58.823 141.924 59.0076C141.499 59.1922 141.117 59.4621 140.802 59.8007C140.486 60.1392 140.244 60.5391 140.089 60.9754C139.935 61.4118 139.872 61.8752 139.904 62.3369C139.897 63.039 140.097 63.7276 140.479 64.317C140.861 64.9064 141.407 65.3706 142.051 65.6518C141.021 65.7719 140.049 66.1883 139.252 66.8502C138.454 67.5122 137.866 68.3914 137.559 69.381C137.468 69.2733 137.368 69.1655 137.277 69.0412C136.53 68.0439 136.044 66.8752 135.864 65.6417C135.685 64.4083 135.817 63.1496 136.25 61.9805C136.485 61.3067 136.827 60.6746 137.261 60.1076C137.7 59.5036 138.235 58.9747 138.843 58.5414C140.113 57.6046 141.65 57.0991 143.227 57.0991C144.805 57.0991 146.342 57.6046 147.611 58.5414C148.217 58.9748 148.749 59.5038 149.186 60.1076C149.619 60.6763 149.963 61.3079 150.205 61.9805C150.669 63.2149 150.798 64.5503 150.578 65.8506Z" fill="#455A64"/>
<path d="M232.795 79.0272C232.795 79.0272 233.036 79.0272 233.483 78.936C234.147 78.7988 234.759 78.4771 235.248 78.0078C235.641 77.6278 235.944 77.1652 236.136 76.6535C236.329 76.1419 236.404 75.5939 236.359 75.0493C236.359 73.7317 236.359 72.2151 236.359 70.5162C236.359 67.1019 236.359 62.9335 236.317 58.0855C236.317 56.8756 236.317 55.5993 236.317 54.3231C236.351 53.6799 236.207 53.0398 235.902 52.4727C235.596 51.9056 235.141 51.4334 234.585 51.1077C233.442 50.3867 231.95 50.7016 230.516 50.6353H226.058L130.755 50.7016C130.212 50.7037 129.677 50.8348 129.195 51.0841C128.712 51.3333 128.295 51.6936 127.979 52.1353C127.664 52.5769 127.462 53.0891 127.391 53.627C127.348 54.1784 127.335 54.7316 127.349 55.2844V75.4968C127.373 76.0086 127.512 76.5084 127.756 76.9589C128 77.4094 128.343 77.7991 128.758 78.099C129.168 78.3985 129.642 78.5999 130.142 78.6874C130.665 78.749 131.191 78.7684 131.717 78.7454H150.495L193.332 78.7951L222.204 78.8697L230.061 78.9111H232.099C232.563 78.9111 232.795 78.9111 232.795 78.9111H232.099H230.061L222.204 78.9609L193.332 79.0354L150.495 79.0852H131.717C131.163 79.1039 130.609 79.0817 130.059 79.0189C129.196 78.8639 128.411 78.4204 127.833 77.7609C127.255 77.1015 126.918 76.2652 126.877 75.3891C126.877 70.9969 126.877 66.5329 126.877 61.997V55.1518C126.877 54.5717 126.877 54.0165 126.877 53.3949C126.967 52.7973 127.197 52.2294 127.548 51.7375C127.906 51.2275 128.381 50.8108 128.933 50.5224C129.486 50.234 130.099 50.0823 130.722 50.0801L226.025 50.1464H232.654C233.382 50.119 234.101 50.3033 234.726 50.6767C235.325 51.0314 235.816 51.5433 236.144 52.1568C236.473 52.7704 236.627 53.4623 236.591 54.1574C236.591 55.4502 236.591 56.7098 236.591 57.9197C236.591 62.7594 236.591 66.9279 236.549 70.3505C236.549 72.0494 236.549 73.5659 236.549 74.8836C236.587 75.4459 236.5 76.0096 236.293 76.5341C236.087 77.0586 235.767 77.5308 235.356 77.9167C234.847 78.3862 234.215 78.6997 233.533 78.82C233.299 78.925 233.05 78.9949 232.795 79.0272Z" fill="#455A64"/>
<path d="M184.944 57.9023H158.027V59.9244H184.944V57.9023Z" fill="#455A64"/>
<path d="M205.181 69.3066H158.027V71.3287H205.181V69.3066Z" fill="#455A64"/>
<path d="M226.363 63.4629H158.027V65.485H226.363V63.4629Z" fill="#455A64"/>
<path d="M142.697 143.451C143.062 143.501 143.261 143.501 143.261 143.534C143.431 143.489 143.607 143.464 143.783 143.459L142.697 143.451Z" fill="#455A64"/>
<path d="M149.218 131.475C148.783 130.87 148.251 130.34 147.643 129.909C146.373 128.972 144.837 128.467 143.259 128.467C141.681 128.467 140.145 128.972 138.875 129.909C137.688 130.773 136.785 131.97 136.281 133.348C135.849 134.517 135.717 135.776 135.896 137.009C136.076 138.243 136.561 139.412 137.309 140.409L137.591 140.749C137.895 139.757 138.483 138.877 139.28 138.214C140.078 137.552 141.052 137.137 142.082 137.019C141.439 136.738 140.892 136.274 140.511 135.685C140.129 135.095 139.929 134.407 139.936 133.705C139.904 133.243 139.967 132.779 140.121 132.343C140.275 131.907 140.518 131.507 140.834 131.168C141.149 130.83 141.531 130.56 141.955 130.375C142.38 130.191 142.838 130.095 143.301 130.095C143.763 130.095 144.221 130.191 144.646 130.375C145.07 130.56 145.452 130.83 145.768 131.168C146.083 131.507 146.326 131.907 146.48 132.343C146.635 132.779 146.698 133.243 146.665 133.705C146.671 134.405 146.471 135.092 146.091 135.681C145.711 136.27 145.168 136.735 144.527 137.019C145.544 137.14 146.504 137.556 147.287 138.216C148.071 138.876 148.644 139.75 148.936 140.732L149.209 140.409C149.957 139.412 150.443 138.243 150.622 137.009C150.802 135.776 150.669 134.517 150.237 133.348C149.995 132.676 149.651 132.044 149.218 131.475Z" fill="#FAFAFA"/>
<path d="M150.652 133.201C150.409 132.479 150.051 131.802 149.591 131.195C149.13 130.559 148.57 129.999 147.934 129.538C146.584 128.537 144.949 127.996 143.268 127.996C141.588 127.996 139.952 128.537 138.603 129.538C137.351 130.467 136.4 131.744 135.868 133.209C135.395 134.537 135.286 135.968 135.553 137.352C135.781 138.56 136.292 139.696 137.045 140.667C138.127 142.063 139.658 143.04 141.379 143.435C141.837 143.551 142.307 143.61 142.779 143.609C142.942 143.631 143.106 143.631 143.268 143.609C143.268 143.609 143.069 143.609 142.705 143.526H143.79C143.614 143.531 143.439 143.556 143.268 143.601C143.43 143.623 143.595 143.623 143.757 143.601C144.229 143.601 144.7 143.543 145.158 143.427C146.876 143.032 148.405 142.054 149.484 140.659C150.24 139.689 150.755 138.553 150.984 137.344C151.249 135.958 151.135 134.527 150.652 133.201ZM150.577 137.261C150.373 138.403 149.905 139.481 149.21 140.41L148.937 140.734C148.644 139.752 148.071 138.877 147.288 138.218C146.504 137.558 145.545 137.142 144.528 137.021C145.168 136.737 145.712 136.272 146.092 135.683C146.472 135.094 146.671 134.407 146.666 133.706C146.698 133.244 146.635 132.781 146.481 132.345C146.327 131.908 146.084 131.508 145.768 131.17C145.453 130.831 145.071 130.561 144.646 130.377C144.222 130.192 143.764 130.097 143.301 130.097C142.838 130.097 142.381 130.192 141.956 130.377C141.532 130.561 141.15 130.831 140.834 131.17C140.519 131.508 140.276 131.908 140.122 132.345C139.967 132.781 139.904 133.244 139.937 133.706C139.93 134.408 140.13 135.097 140.512 135.686C140.893 136.276 141.44 136.74 142.083 137.021C141.053 137.138 140.079 137.553 139.281 138.216C138.483 138.878 137.896 139.759 137.591 140.75L137.31 140.41C136.562 139.413 136.076 138.244 135.897 137.011C135.717 135.778 135.85 134.519 136.282 133.35C136.786 131.971 137.689 130.774 138.876 129.911C140.146 128.974 141.682 128.468 143.26 128.468C144.838 128.468 146.374 128.974 147.644 129.911C148.252 130.342 148.784 130.871 149.218 131.477C149.652 132.045 149.996 132.677 150.238 133.35C150.698 134.6 150.816 135.951 150.577 137.261Z" fill="#455A64"/>
<path d="M232.795 150.437C232.795 150.437 233.035 150.437 233.483 150.346C234.147 150.209 234.758 149.887 235.248 149.418C235.642 149.037 235.946 148.573 236.138 148.06C236.33 147.547 236.405 146.997 236.358 146.451C236.358 145.142 236.358 143.625 236.358 141.918C236.358 138.512 236.358 134.336 236.317 129.488C236.317 128.278 236.317 127.001 236.317 125.733C236.35 125.089 236.206 124.448 235.901 123.88C235.596 123.311 235.141 122.837 234.585 122.51C233.441 121.789 231.949 122.104 230.516 122.037H226.057L130.755 122.112C130.211 122.112 129.676 122.242 129.193 122.492C128.71 122.741 128.293 123.102 127.979 123.546C127.663 123.984 127.46 124.493 127.39 125.029C127.348 125.58 127.334 126.134 127.349 126.686V146.94C127.374 147.452 127.514 147.951 127.758 148.401C128.001 148.852 128.343 149.242 128.758 149.542C129.168 149.842 129.641 150.043 130.142 150.131C130.664 150.188 131.191 150.208 131.716 150.189H150.495L193.331 150.239L222.204 150.321H230.06L222.204 150.363L193.331 150.446L150.495 150.495H131.716C131.163 150.517 130.609 150.498 130.059 150.437C129.218 150.287 128.451 149.862 127.876 149.229C127.302 148.597 126.954 147.792 126.885 146.94C126.885 142.548 126.885 138.084 126.885 133.548V126.703C126.885 126.123 126.885 125.576 126.885 124.946C126.968 124.334 127.199 123.751 127.556 123.247C127.915 122.738 128.39 122.322 128.942 122.034C129.494 121.746 130.107 121.593 130.73 121.59L226.032 121.656H232.662C233.191 121.636 233.718 121.726 234.21 121.921C234.702 122.117 235.148 122.413 235.518 122.79C235.889 123.168 236.177 123.619 236.363 124.114C236.549 124.61 236.629 125.139 236.599 125.667C236.599 126.96 236.599 128.211 236.599 129.421C236.599 134.261 236.599 138.438 236.557 141.852C236.557 143.559 236.557 145.076 236.557 146.385C236.595 146.947 236.508 147.511 236.302 148.036C236.095 148.56 235.775 149.033 235.364 149.418C234.855 149.89 234.223 150.206 233.541 150.33C233.299 150.402 233.047 150.438 232.795 150.437Z" fill="#455A64"/>
<path d="M184.944 129.305H158.027V131.327H184.944V129.305Z" fill="#455A64"/>
<path d="M205.181 140.717H158.027V142.739H205.181V140.717Z" fill="#455A64"/>
<path d="M226.363 134.873H158.027V136.895H226.363V134.873Z" fill="#455A64"/>
<path d="M127.369 88.5241L127.308 110.56C127.303 112.358 128.757 113.82 130.556 113.826L233.366 114.113C235.165 114.118 236.627 112.664 236.632 110.865L236.693 88.8293C236.698 87.0306 235.244 85.5684 233.446 85.5634L130.635 85.2763C128.837 85.2713 127.374 86.7253 127.369 88.5241Z" fill="#0B56A4"/>
<path d="M185.217 92.8486L158.301 92.7734L158.295 94.7955L185.212 94.8707L185.217 92.8486Z" fill="#FAFAFA"/>
<path d="M205.423 104.307L158.27 104.176L158.264 106.198L205.418 106.33L205.423 104.307Z" fill="#FAFAFA"/>
<path d="M226.621 98.5326L158.285 98.3418L158.28 100.364L226.615 100.555L226.621 98.5326Z" fill="#FAFAFA"/>
<path d="M144.793 100.433C145.428 100.135 145.963 99.6577 146.331 99.06C146.699 98.4623 146.884 97.7702 146.865 97.0686C146.889 96.6069 146.818 96.1452 146.656 95.7121C146.494 95.279 146.245 94.8838 145.924 94.551C145.603 94.2183 145.217 93.955 144.79 93.7776C144.363 93.6003 143.905 93.5126 143.442 93.52C142.98 93.5274 142.524 93.6297 142.103 93.8207C141.682 94.0116 141.305 94.2871 140.995 94.63C140.685 94.9728 140.448 95.3758 140.301 95.8138C140.153 96.2519 140.097 96.7156 140.135 97.1763C140.134 97.8859 140.344 98.5799 140.738 99.1701C141.132 99.7603 141.692 100.22 142.348 100.491C141.289 100.641 140.297 101.102 139.5 101.816C138.704 102.53 138.137 103.465 137.873 104.502C139.11 105.844 140.785 106.702 142.597 106.922H144.669C146.501 106.644 148.169 105.707 149.359 104.287C149.073 103.26 148.485 102.343 147.67 101.656C146.856 100.968 145.853 100.542 144.793 100.433Z" fill="#FAFAFA"/>
<path d="M143.666 106.971C143.666 106.913 144.346 106.971 145.506 106.606C146.513 106.322 147.45 105.831 148.257 105.164C149.064 104.497 149.722 103.669 150.19 102.733C150.658 101.797 150.926 100.773 150.975 99.7275C151.025 98.682 150.856 97.6376 150.478 96.6614C150.226 95.9918 149.871 95.3655 149.426 94.805C148.971 94.2097 148.426 93.6895 147.81 93.2636C146.512 92.3576 144.96 91.8878 143.378 91.922C141.796 91.9563 140.266 92.4929 139.009 93.4542C138.411 93.9054 137.888 94.4479 137.459 95.0619C137.038 95.6408 136.708 96.2809 136.481 96.9597C136.146 97.9517 136.02 99.0026 136.112 100.046C136.204 101.089 136.512 102.102 137.016 103.019C137.52 103.937 138.21 104.74 139.041 105.378C139.872 106.015 140.826 106.473 141.843 106.722C143.02 107.004 143.708 106.946 143.699 107.004C143.067 107.068 142.429 107.029 141.81 106.888C140.086 106.526 138.541 105.581 137.434 104.211C136.667 103.265 136.134 102.152 135.876 100.962C135.58 99.5854 135.661 98.1542 136.108 96.8188C136.606 95.3463 137.525 94.0523 138.752 93.0979C140.076 92.073 141.694 91.5005 143.368 91.4647C145.042 91.4289 146.683 91.9317 148.05 92.899C148.702 93.3566 149.275 93.9162 149.749 94.5564C150.217 95.1523 150.589 95.8178 150.851 96.5288C151.36 97.8476 151.5 99.2799 151.257 100.672C151.006 102.137 150.338 103.499 149.332 104.594C148.327 105.689 147.027 106.471 145.589 106.846C144.96 106.996 144.31 107.038 143.666 106.971Z" fill="#FAFAFA"/>
<path d="M175.29 241.131C175.223 241.588 174.993 242.004 174.644 242.306C174.295 242.607 173.849 242.773 173.388 242.773C172.927 242.773 172.481 242.607 172.132 242.306C171.783 242.004 171.554 241.588 171.486 241.131C171.554 240.675 171.783 240.259 172.132 239.957C172.481 239.656 172.927 239.49 173.388 239.49C173.849 239.49 174.295 239.656 174.644 239.957C174.993 240.259 175.223 240.675 175.29 241.131Z" fill="#455A64"/>
<path d="M181.19 241.158C181.244 241.546 181.178 241.941 181.001 242.291C180.825 242.64 180.545 242.928 180.2 243.114C179.856 243.3 179.462 243.377 179.073 243.334C178.683 243.29 178.316 243.129 178.021 242.871C177.726 242.613 177.517 242.271 177.421 241.891C177.326 241.511 177.349 241.111 177.487 240.744C177.625 240.378 177.872 240.062 178.195 239.84C178.518 239.617 178.901 239.499 179.292 239.5C179.764 239.468 180.229 239.625 180.585 239.936C180.94 240.247 181.158 240.686 181.19 241.158Z" fill="#455A64"/>
<path d="M187.083 241.182C187.137 241.571 187.071 241.967 186.894 242.317C186.716 242.666 186.436 242.954 186.091 243.14C185.746 243.326 185.352 243.402 184.962 243.358C184.572 243.314 184.205 243.152 183.911 242.893C183.616 242.634 183.407 242.292 183.313 241.911C183.218 241.53 183.242 241.13 183.382 240.763C183.521 240.397 183.77 240.082 184.094 239.86C184.417 239.639 184.801 239.522 185.193 239.525C185.663 239.495 186.126 239.653 186.48 239.964C186.834 240.274 187.051 240.713 187.083 241.182Z" fill="#455A64"/>
<path d="M142.697 180.486C143.062 180.536 143.261 180.536 143.261 180.569C143.261 180.602 143.443 180.569 143.783 180.495L142.697 180.486Z" fill="#455A64"/>
<path d="M149.218 168.487C148.781 167.885 148.249 167.359 147.643 166.929C146.373 165.992 144.837 165.486 143.259 165.486C141.681 165.486 140.145 165.992 138.875 166.929C138.267 167.359 137.732 167.885 137.292 168.487C136.858 169.056 136.517 169.691 136.281 170.368C135.849 171.537 135.717 172.796 135.896 174.029C136.076 175.262 136.561 176.431 137.309 177.428C137.4 177.544 137.5 177.652 137.591 177.76C137.898 176.771 138.486 175.892 139.283 175.232C140.081 174.571 141.053 174.156 142.082 174.039C141.432 173.755 140.881 173.285 140.499 172.687C140.117 172.089 139.921 171.392 139.936 170.683C139.904 170.221 139.967 169.758 140.121 169.321C140.275 168.885 140.518 168.485 140.834 168.146C141.149 167.808 141.531 167.538 141.955 167.353C142.38 167.169 142.838 167.073 143.301 167.073C143.763 167.073 144.221 167.169 144.646 167.353C145.07 167.538 145.452 167.808 145.768 168.146C146.083 168.485 146.326 168.885 146.48 169.321C146.635 169.758 146.698 170.221 146.665 170.683C146.671 171.383 146.471 172.07 146.091 172.659C145.711 173.248 145.168 173.713 144.527 173.998C145.544 174.118 146.504 174.534 147.287 175.194C148.071 175.854 148.644 176.729 148.936 177.71L149.209 177.387C149.954 176.388 150.437 175.219 150.617 173.987C150.796 172.754 150.666 171.496 150.237 170.326C149.991 169.666 149.647 169.045 149.218 168.487Z" fill="#FAFAFA"/>
<path d="M150.652 170.236C150.407 169.515 150.049 168.838 149.591 168.23C149.128 167.595 148.569 167.036 147.934 166.573C146.584 165.572 144.949 165.031 143.268 165.031C141.588 165.031 139.952 165.572 138.603 166.573C137.347 167.498 136.395 168.776 135.868 170.244C135.395 171.572 135.286 173.003 135.553 174.388C135.783 175.594 136.294 176.73 137.045 177.702C138.127 179.098 139.658 180.076 141.379 180.47C141.838 180.578 142.308 180.636 142.779 180.644C142.942 180.666 143.106 180.666 143.268 180.644C143.268 180.644 143.069 180.644 142.705 180.562H143.79C143.451 180.603 143.268 180.603 143.268 180.636C143.43 180.658 143.595 180.658 143.757 180.636C144.229 180.628 144.698 180.57 145.158 180.462C146.876 180.067 148.405 179.089 149.484 177.694C150.24 176.724 150.755 175.588 150.984 174.379C151.249 172.994 151.135 171.562 150.652 170.236ZM150.577 174.288C150.376 175.433 149.907 176.515 149.21 177.446L148.937 177.769C148.644 176.787 148.071 175.912 147.288 175.253C146.504 174.593 145.545 174.177 144.528 174.056C145.168 173.772 145.712 173.307 146.092 172.718C146.472 172.129 146.671 171.442 146.666 170.741C146.698 170.28 146.635 169.816 146.481 169.38C146.327 168.943 146.084 168.544 145.768 168.205C145.453 167.866 145.071 167.597 144.646 167.412C144.222 167.227 143.764 167.132 143.301 167.132C142.838 167.132 142.381 167.227 141.956 167.412C141.532 167.597 141.15 167.866 140.834 168.205C140.519 168.544 140.276 168.943 140.122 169.38C139.967 169.816 139.904 170.28 139.937 170.741C139.922 171.45 140.118 172.148 140.5 172.746C140.882 173.343 141.433 173.814 142.083 174.098C141.054 174.215 140.082 174.629 139.284 175.29C138.486 175.951 137.898 176.829 137.591 177.818C137.5 177.711 137.401 177.603 137.31 177.487C136.562 176.49 136.076 175.321 135.897 174.088C135.717 172.854 135.85 171.595 136.282 170.426C136.518 169.75 136.859 169.115 137.293 168.545C137.733 167.944 138.268 167.418 138.876 166.987C140.146 166.05 141.682 165.545 143.26 165.545C144.838 165.545 146.374 166.05 147.644 166.987C148.25 167.418 148.781 167.944 149.218 168.545C149.652 169.117 149.996 169.751 150.238 170.426C150.689 171.661 150.807 172.993 150.577 174.288Z" fill="#455A64"/>
<path d="M232.795 187.472C232.795 187.472 233.036 187.472 233.483 187.381C234.147 187.244 234.759 186.922 235.248 186.453C235.642 186.072 235.946 185.608 236.138 185.095C236.33 184.581 236.406 184.032 236.359 183.486C236.359 182.168 236.359 180.66 236.359 178.953C236.359 175.538 236.359 171.37 236.317 166.522C236.317 165.312 236.317 164.036 236.317 162.768C236.351 162.124 236.207 161.482 235.902 160.914C235.596 160.346 235.141 159.872 234.585 159.544C233.442 158.823 231.95 159.138 230.516 159.072H226.058L130.755 159.146C130.211 159.144 129.675 159.274 129.192 159.523C128.708 159.773 128.292 160.135 127.979 160.58C127.662 161.017 127.459 161.528 127.391 162.063C127.349 162.615 127.335 163.168 127.349 163.721V183.983C127.373 184.496 127.512 184.997 127.756 185.449C128 185.901 128.343 186.292 128.758 186.594C129.168 186.893 129.642 187.094 130.142 187.182C130.665 187.235 131.191 187.255 131.717 187.24H150.495L193.332 187.29L222.204 187.373L230.061 187.414H232.099C232.563 187.414 232.795 187.414 232.795 187.414H232.099H230.061H222.204L193.332 187.489L150.495 187.547H131.717C131.163 187.569 130.609 187.547 130.059 187.48C129.487 187.387 128.944 187.16 128.476 186.817C128.002 186.477 127.611 186.032 127.334 185.518C127.057 185.004 126.901 184.434 126.877 183.85C126.877 179.431 126.877 174.967 126.877 170.458V163.613C126.877 163.033 126.877 162.486 126.877 161.856C126.961 161.244 127.191 160.661 127.548 160.157C127.909 159.65 128.385 159.236 128.936 158.948C129.488 158.66 130.1 158.506 130.722 158.5L226.025 158.575H232.654C233.381 158.555 234.098 158.739 234.726 159.105C235.325 159.462 235.815 159.975 236.144 160.59C236.473 161.205 236.627 161.898 236.591 162.594C236.591 163.887 236.591 165.138 236.591 166.348C236.591 171.188 236.591 175.356 236.549 178.779C236.549 180.486 236.549 181.994 236.549 183.312C236.588 183.874 236.5 184.438 236.294 184.963C236.088 185.487 235.767 185.959 235.356 186.345C234.848 186.816 234.215 187.133 233.533 187.256C233.299 187.364 233.05 187.437 232.795 187.472Z" fill="#455A64"/>
<path d="M184.944 166.34H158.027V168.362H184.944V166.34Z" fill="#455A64"/>
<path d="M205.181 177.752H158.027V179.774H205.181V177.752Z" fill="#455A64"/>
<path d="M226.363 171.91H158.027V173.932H226.363V171.91Z" fill="#455A64"/>
<path d="M142.697 216.785C143.062 216.827 143.261 216.835 143.261 216.868C143.261 216.901 143.443 216.827 143.783 216.793L142.697 216.785Z" fill="#455A64"/>
<path d="M149.218 204.801C148.779 204.199 148.247 203.671 147.643 203.235C146.369 202.309 144.834 201.811 143.259 201.811C141.684 201.811 140.15 202.309 138.875 203.235C138.269 203.671 137.734 204.199 137.292 204.801C136.858 205.371 136.517 206.006 136.281 206.682C135.849 207.851 135.717 209.11 135.896 210.344C136.076 211.577 136.561 212.746 137.309 213.743C137.4 213.859 137.5 213.967 137.591 214.075C137.898 213.085 138.486 212.207 139.283 211.546C140.081 210.885 141.053 210.471 142.082 210.354C141.44 210.072 140.894 209.607 140.512 209.018C140.131 208.429 139.93 207.741 139.936 207.039C139.904 206.577 139.967 206.114 140.121 205.677C140.275 205.241 140.518 204.841 140.834 204.503C141.149 204.164 141.531 203.894 141.955 203.709C142.38 203.525 142.838 203.43 143.301 203.43C143.763 203.43 144.221 203.525 144.646 203.709C145.07 203.894 145.452 204.164 145.768 204.503C146.083 204.841 146.326 205.241 146.48 205.677C146.635 206.114 146.698 206.577 146.665 207.039C146.671 207.739 146.471 208.427 146.091 209.015C145.711 209.604 145.168 210.069 144.527 210.354C145.545 210.473 146.505 210.889 147.288 211.549C148.072 212.209 148.645 213.084 148.936 214.066C149.027 213.959 149.118 213.859 149.209 213.735C149.908 212.808 150.377 211.729 150.577 210.586C150.813 209.278 150.696 207.93 150.237 206.682C149.995 206.007 149.651 205.373 149.218 204.801Z" fill="#FAFAFA"/>
<path d="M150.653 206.524C150.407 205.806 150.049 205.132 149.592 204.527C149.13 203.89 148.571 203.331 147.935 202.869C146.583 201.873 144.948 201.336 143.269 201.336C141.59 201.336 139.955 201.873 138.603 202.869C137.964 203.328 137.405 203.888 136.946 204.527C136.489 205.134 136.128 205.807 135.877 206.524C135.405 207.853 135.296 209.283 135.562 210.668C135.789 211.875 136.3 213.012 137.053 213.982C138.133 215.382 139.665 216.364 141.388 216.759C141.847 216.866 142.316 216.925 142.788 216.933C142.95 216.954 143.115 216.954 143.277 216.933C143.277 216.933 143.078 216.891 142.714 216.85H143.799C143.459 216.85 143.277 216.85 143.277 216.924C143.439 216.946 143.604 216.946 143.766 216.924C144.238 216.916 144.707 216.858 145.167 216.75C146.612 216.402 147.927 215.646 148.955 214.572C149.984 213.498 150.682 212.152 150.968 210.692C151.241 209.3 151.133 207.859 150.653 206.524ZM150.578 210.585C150.378 211.728 149.91 212.807 149.211 213.734C149.12 213.858 149.028 213.958 148.937 214.065C148.646 213.083 148.073 212.208 147.289 211.548C146.506 210.888 145.546 210.473 144.528 210.353C145.169 210.069 145.713 209.603 146.093 209.015C146.472 208.426 146.672 207.739 146.667 207.038C146.699 206.576 146.636 206.113 146.482 205.676C146.327 205.24 146.085 204.84 145.769 204.502C145.453 204.163 145.072 203.893 144.647 203.709C144.223 203.524 143.765 203.429 143.302 203.429C142.839 203.429 142.381 203.524 141.957 203.709C141.532 203.893 141.15 204.163 140.835 204.502C140.519 204.84 140.277 205.24 140.122 205.676C139.968 206.113 139.905 206.576 139.937 207.038C139.932 207.74 140.132 208.428 140.514 209.017C140.895 209.606 141.441 210.071 142.084 210.353C141.053 210.467 140.077 210.878 139.277 211.538C138.476 212.197 137.885 213.075 137.576 214.065C137.484 213.958 137.385 213.85 137.294 213.734C136.546 212.737 136.06 211.568 135.881 210.334C135.701 209.101 135.834 207.842 136.266 206.673C136.502 205.997 136.843 205.362 137.277 204.792C137.719 204.19 138.253 203.661 138.86 203.226C140.134 202.3 141.669 201.801 143.244 201.801C144.819 201.801 146.354 202.3 147.628 203.226C148.811 204.096 149.713 205.295 150.222 206.673C150.688 207.922 150.811 209.272 150.578 210.585Z" fill="#455A64"/>
<path d="M232.795 223.771C232.795 223.771 233.036 223.771 233.483 223.68C234.355 223.493 235.129 222.994 235.658 222.277C236.188 221.559 236.437 220.673 236.359 219.785C236.359 218.467 236.359 216.959 236.359 215.252C236.359 211.837 236.359 207.669 236.317 202.821C236.317 201.611 236.317 200.335 236.317 199.067C236.348 198.416 236.198 197.769 235.884 197.199C235.569 196.628 235.102 196.156 234.536 195.835C233.392 195.114 231.9 195.429 230.467 195.362H226.008L130.706 195.429C130.161 195.43 129.626 195.562 129.143 195.813C128.66 196.064 128.244 196.426 127.929 196.871C127.612 197.308 127.41 197.818 127.341 198.354C127.299 198.905 127.285 199.459 127.3 200.012V220.282C127.324 220.794 127.463 221.293 127.707 221.744C127.951 222.195 128.293 222.584 128.708 222.884C129.118 223.187 129.591 223.391 130.092 223.481C130.615 223.535 131.142 223.552 131.667 223.531H150.446L193.282 223.58L222.155 223.655L230.011 223.705H232.049H232.746C232.746 223.705 232.514 223.705 232.049 223.705H230.011L222.155 223.754L193.282 223.829L150.446 223.879H131.717C131.163 223.897 130.609 223.875 130.059 223.812C129.486 223.716 128.944 223.486 128.476 223.141C128.002 222.802 127.612 222.359 127.334 221.847C127.057 221.334 126.901 220.765 126.877 220.182C126.877 215.79 126.877 211.326 126.877 206.79V199.945C126.877 199.365 126.877 198.818 126.877 198.188C126.961 197.576 127.191 196.993 127.548 196.489C127.908 195.981 128.383 195.565 128.935 195.277C129.487 194.989 130.1 194.836 130.722 194.832L226.025 194.907H232.654C233.381 194.887 234.098 195.071 234.726 195.437C235.326 195.793 235.817 196.306 236.145 196.921C236.474 197.536 236.628 198.23 236.591 198.926C236.591 200.219 236.591 201.47 236.591 202.68C236.591 207.52 236.591 211.688 236.549 215.111C236.549 216.818 236.549 218.326 236.549 219.644C236.587 220.206 236.5 220.77 236.293 221.294C236.087 221.819 235.767 222.291 235.356 222.677C234.85 223.15 234.216 223.464 233.533 223.58C233.298 223.681 233.049 223.746 232.795 223.771Z" fill="#455A64"/>
<path d="M184.944 202.639H158.027V204.661H184.944V202.639Z" fill="#455A64"/>
<path d="M205.181 214.041H158.027V216.063H205.181V214.041Z" fill="#455A64"/>
<path d="M226.363 208.199H158.027V210.221H226.363V208.199Z" fill="#455A64"/>
<path d="M233.119 93.1557C236.167 93.1557 238.638 90.6846 238.638 87.6364C238.638 84.5882 236.167 82.1172 233.119 82.1172C230.071 82.1172 227.6 84.5882 227.6 87.6364C227.6 90.6846 230.071 93.1557 233.119 93.1557Z" fill="#263238"/>
<path d="M230.408 87.1885L232.729 89.2272L235.82 86.0449" stroke="#FAFAFA" stroke-linecap="round" stroke-linejoin="round"/>
<path d="M80.1614 333.377L78.8105 341.225L90.9098 342.112L90.9513 334.396L80.1614 333.377Z" fill="#0B56A4"/>
<path d="M85.6139 333.484C85.5811 335.882 85.3034 338.27 84.7852 340.611C84.7386 339.411 84.8108 338.209 85.0006 337.023C85.0868 335.826 85.2922 334.641 85.6139 333.484Z" fill="#263238"/>
<path d="M90.9102 341.258C90.3245 341.267 89.7392 341.223 89.1616 341.125L84.96 340.661C83.3026 340.471 81.8275 340.272 80.7584 340.089C80.1749 340.022 79.6 339.895 79.043 339.708C79.6286 339.688 80.2147 339.729 80.7916 339.833L85.0014 340.305C86.6589 340.487 88.1257 340.694 89.1948 340.877C89.7783 340.944 90.3532 341.072 90.9102 341.258Z" fill="#263238"/>
<path d="M123.835 337.661V330.617L110.658 330.492L110.518 340.793L111.346 340.851C114.984 341.083 129.852 341.796 132.288 341.083C135.014 340.288 123.835 337.661 123.835 337.661Z" fill="#0B56A4"/>
<g opacity="0.38">
<path d="M115.316 340.736C115.131 339.622 114.54 338.616 113.659 337.91C112.794 337.206 111.697 336.852 110.584 336.916V340.603L115.316 340.736Z" fill="black"/>
</g>
<g opacity="0.38">
<path d="M129.288 339.137C129.288 339.137 133.199 340.305 132.702 340.952C132.205 341.598 117.155 341.441 110.525 340.794V340.496L128.078 340.819C128.078 340.819 128.525 339.203 129.288 339.137Z" fill="black"/>
</g>
<path d="M110.352 340.486H110.575L111.222 340.536L113.617 340.66C115.647 340.752 118.44 340.843 121.531 340.876C124.622 340.909 127.415 340.876 129.445 340.834L131.84 340.76H132.495C132.569 340.771 132.644 340.771 132.719 340.76H131.84H129.445C127.415 340.76 124.622 340.76 121.531 340.76C118.44 340.76 115.647 340.652 113.625 340.586L111.23 340.511H110.575L110.352 340.486Z" fill="#263238"/>
<path d="M128.102 341.025C128.212 340.63 128.368 340.249 128.566 339.89C128.81 339.558 129.088 339.253 129.395 338.979C128.985 339.129 128.643 339.424 128.434 339.807C128.178 340.159 128.06 340.593 128.102 341.025Z" fill="#263238"/>
<path d="M124.234 339.011C124.234 339.011 124.457 338.813 124.656 338.514C124.798 338.344 124.897 338.142 124.946 337.926C124.946 337.926 124.714 338.125 124.524 338.423C124.333 338.721 124.2 338.987 124.234 339.011Z" fill="#263238"/>
<path d="M123.172 338.439C123.172 338.439 123.413 338.332 123.645 338.133C123.877 337.934 124.034 337.743 124.001 337.71C123.968 337.677 123.769 337.81 123.537 338.017C123.305 338.224 123.148 338.373 123.172 338.439Z" fill="#263238"/>
<path d="M122.51 337.19C122.963 337.289 123.432 337.289 123.885 337.19C123.885 337.14 123.579 337.099 123.206 337.09C122.969 337.073 122.732 337.107 122.51 337.19Z" fill="#263238"/>
<path d="M122.285 336.311C122.514 336.462 122.782 336.542 123.056 336.543C123.336 336.598 123.626 336.563 123.885 336.444C123.628 336.395 123.367 336.376 123.106 336.386C122.835 336.332 122.56 336.307 122.285 336.311Z" fill="#263238"/>
<path d="M124.697 337.869C124.972 337.913 125.251 337.913 125.526 337.869C125.832 337.83 126.134 337.766 126.429 337.678C126.608 337.63 126.78 337.56 126.943 337.471C126.995 337.444 127.041 337.406 127.078 337.36C127.115 337.315 127.142 337.262 127.159 337.206C127.171 337.144 127.166 337.079 127.144 337.019C127.122 336.959 127.084 336.906 127.034 336.866C126.713 336.702 126.345 336.655 125.993 336.736C125.641 336.816 125.329 337.018 125.112 337.306C124.975 337.466 124.879 337.656 124.83 337.861C124.83 338.01 124.83 338.093 124.83 338.093C124.914 337.831 125.046 337.586 125.219 337.372C125.413 337.151 125.666 336.99 125.949 336.908C126.284 336.802 126.646 336.832 126.96 336.991C127.092 337.09 127.034 337.248 126.885 337.339C126.733 337.417 126.575 337.484 126.413 337.538C126.126 337.633 125.832 337.705 125.534 337.753C125.02 337.844 124.697 337.844 124.697 337.869Z" fill="#263238"/>
<path d="M124.912 337.91C124.912 337.91 125.053 337.711 125.02 337.33C124.992 337.108 124.912 336.895 124.788 336.709C124.72 336.581 124.62 336.474 124.498 336.397C124.376 336.32 124.236 336.276 124.092 336.27C124.049 336.277 124.007 336.294 123.971 336.318C123.934 336.342 123.902 336.373 123.878 336.409C123.853 336.445 123.836 336.486 123.827 336.529C123.818 336.572 123.818 336.616 123.826 336.659C123.844 336.792 123.892 336.92 123.967 337.032C124.077 337.22 124.207 337.395 124.357 337.554C124.488 337.705 124.653 337.824 124.837 337.902C124.837 337.902 124.672 337.745 124.44 337.479C124.311 337.317 124.195 337.145 124.092 336.966C123.976 336.783 123.901 336.46 124.092 336.427C124.282 336.394 124.514 336.618 124.647 336.792C124.764 336.957 124.843 337.147 124.879 337.347C124.908 337.533 124.919 337.722 124.912 337.91Z" fill="#263238"/>
<path d="M110.658 336.883C110.658 336.883 111.031 336.883 111.628 336.924C112.402 337.025 113.133 337.337 113.741 337.828C114.345 338.323 114.798 338.978 115.05 339.717C115.147 340.025 115.227 340.337 115.291 340.653C115.305 340.566 115.305 340.476 115.291 340.388C115.268 340.147 115.22 339.908 115.15 339.676C114.916 338.902 114.458 338.215 113.832 337.703C113.204 337.191 112.435 336.882 111.628 336.817C111.388 336.79 111.146 336.79 110.907 336.817C110.821 336.823 110.736 336.846 110.658 336.883Z" fill="#263238"/>
<path d="M112.075 331.412C111.977 332.309 111.93 333.211 111.934 334.114C111.884 335.016 111.884 335.921 111.934 336.824C112.033 335.927 112.08 335.024 112.075 334.122C112.126 333.219 112.126 332.315 112.075 331.412Z" fill="#263238"/>
<path d="M116.982 339.469C117.612 339.621 118.258 339.691 118.905 339.676C119.552 339.717 120.201 339.672 120.836 339.543C120.836 339.494 120.007 339.543 118.913 339.543C117.819 339.543 116.991 339.419 116.982 339.469Z" fill="#263238"/>
<path d="M114.371 339.435C114.371 339.435 114.437 339.618 114.52 339.816C114.603 340.015 114.653 340.189 114.703 340.189C114.752 340.189 114.769 339.982 114.703 339.75C114.636 339.518 114.429 339.402 114.371 339.435Z" fill="#263238"/>
<path d="M113.443 338.216C113.443 338.216 113.493 338.382 113.626 338.523C113.758 338.664 113.899 338.747 113.932 338.722C113.965 338.697 113.874 338.548 113.742 338.407C113.609 338.266 113.468 338.183 113.443 338.216Z" fill="#263238"/>
<path d="M112.051 337.645C112.051 337.686 112.233 337.686 112.432 337.761C112.631 337.835 112.764 337.935 112.797 337.902C112.83 337.869 112.722 337.695 112.482 337.612C112.242 337.529 112.043 337.603 112.051 337.645Z" fill="#263238"/>
<path d="M111.057 337.371C111.057 337.371 111.115 337.487 111.222 337.528C111.33 337.57 111.43 337.528 111.446 337.528C111.463 337.528 111.388 337.421 111.28 337.379C111.173 337.338 111.057 337.33 111.057 337.371Z" fill="#263238"/>
<path d="M103.847 123.786C103.946 121.722 104.17 119.385 104.17 119.385C104.17 119.385 109.275 118.83 109.582 113.584C109.888 108.338 109.582 96.1811 109.582 96.1811L100.283 91.416L90.0488 99.4877L91.5985 125.866L101.013 126.462C101.376 126.478 101.738 126.421 102.079 126.294C102.42 126.167 102.731 125.972 102.995 125.723C103.26 125.473 103.471 125.173 103.617 124.841C103.764 124.508 103.842 124.149 103.847 123.786Z" fill="#FFBE9D"/>
<path d="M104.766 109.382C104.766 109.382 104.766 109.473 104.683 109.606C104.613 109.691 104.524 109.759 104.424 109.803C104.323 109.848 104.213 109.868 104.103 109.863C103.506 109.863 102.935 109.183 102.727 108.379C102.633 107.996 102.633 107.595 102.727 107.211C102.739 107.036 102.796 106.867 102.894 106.722C102.991 106.576 103.125 106.459 103.283 106.382C103.344 106.356 103.41 106.342 103.477 106.342C103.544 106.342 103.611 106.356 103.672 106.382C103.767 106.424 103.841 106.502 103.879 106.598C103.954 106.747 103.879 106.846 103.879 106.838C103.879 106.83 103.879 106.747 103.78 106.656C103.733 106.587 103.661 106.538 103.58 106.52C103.498 106.502 103.413 106.515 103.341 106.556C103.23 106.629 103.138 106.727 103.074 106.842C103.009 106.958 102.972 107.087 102.968 107.219C102.903 107.566 102.917 107.923 103.009 108.263C103.191 108.984 103.689 109.565 104.128 109.623C104.216 109.634 104.305 109.627 104.391 109.603C104.476 109.579 104.556 109.538 104.625 109.482C104.716 109.449 104.749 109.374 104.766 109.382Z" fill="#EB996E"/>
<path d="M104.732 112.64C104.798 112.449 104.84 112.242 104.898 112.043C104.956 111.844 104.973 111.761 105.022 111.612C105.111 111.178 105.158 110.737 105.163 110.294C104.709 110.47 104.214 110.509 103.738 110.406C103.262 110.303 102.827 110.063 102.486 109.714C102.144 109.351 101.904 108.903 101.794 108.416C101.683 107.93 101.705 107.422 101.857 106.946C102.074 106.425 102.399 105.956 102.811 105.569C103.222 105.182 103.71 104.886 104.243 104.701C105.271 104.27 106.373 104.054 107.384 103.574C109.522 102.563 110.997 100.449 112.008 98.2366C112.713 96.6869 113.243 94.9217 112.762 93.2643C112.05 90.8362 109.448 89.6345 107.119 88.9633C103.539 87.9522 99.6604 87.5047 96.1633 88.7892C92.6661 90.0738 88.4645 92.3444 88.4645 96.2063C86.401 96.0322 85.2242 97.8637 84.4038 100.085C84.0001 101.476 83.6955 102.894 83.4922 104.328" fill="#263238"/>
<path d="M91.2832 120.421C88.7032 118.641 86.6287 116.223 85.262 113.403C83.8953 110.582 83.283 107.455 83.485 104.327C84.0153 93.2558 104.733 112.615 104.733 112.615C104.733 112.615 100.764 125.659 91.7058 120.396" fill="#263238"/>
<path d="M88.2073 109.384C88.1493 109.334 88.5637 108.945 88.9035 108.141C89.1355 107.63 89.2576 107.076 89.2618 106.515C89.2661 105.955 89.1524 105.399 88.9281 104.885C88.7039 104.371 88.3741 103.909 87.9601 103.531C87.5461 103.152 87.0572 102.865 86.5251 102.688C85.6963 102.389 85.1328 102.431 85.1328 102.356C85.6184 102.207 86.1397 102.221 86.6162 102.398C87.2072 102.564 87.755 102.857 88.2215 103.257C88.688 103.656 89.0621 104.152 89.3178 104.71C89.5599 105.276 89.6728 105.888 89.6484 106.503C89.624 107.118 89.463 107.72 89.177 108.265C88.7377 109.102 88.2322 109.417 88.2073 109.384Z" fill="#0B56A4"/>
<path d="M83.941 102.604C83.7535 102.628 83.5634 102.587 83.4024 102.488C82.9369 102.26 82.5545 101.892 82.3085 101.435C81.9646 100.752 81.8401 99.9793 81.9521 99.2226C82.0485 98.3079 82.3305 97.4224 82.7808 96.6204C83.2412 95.7987 83.9653 95.1564 84.8361 94.7973C85.5585 94.5025 86.3677 94.5025 87.0902 94.7973C87.5679 94.9967 87.9729 95.338 88.2504 95.7751C88.4244 96.09 88.4493 96.2972 88.4244 96.2972C88.0871 95.7455 87.5774 95.3203 86.9741 95.0873C86.3239 94.8625 85.6122 94.8951 84.9852 95.1785C84.2111 95.5176 83.5683 96.0993 83.1538 96.8359C82.267 98.4187 82.0184 100.234 82.5571 101.286C82.8531 101.871 83.3419 102.337 83.941 102.604Z" fill="#263238"/>
<path d="M178.041 106.334C177.668 105.952 176.757 106.135 176.757 106.135C176.844 105.602 176.844 105.059 176.757 104.527C176.591 104.005 175.423 104.104 175.423 104.104C175.367 103.667 175.367 103.224 175.423 102.787C175.429 102.691 175.406 102.595 175.357 102.513C175.308 102.43 175.236 102.364 175.149 102.323C174.597 102.099 174.004 101.992 173.409 102.008C172.688 101.494 175.58 97.4497 176.657 96.1569C177.735 94.8641 177.536 93.8613 176.583 93.8613C175.928 93.8613 172.555 97.748 171.519 99.0491C170.483 100.35 167.732 103.98 167.641 101.088C167.55 98.1955 166.381 95.9994 165.652 95.6265C164.923 95.2536 164.144 96.132 164.55 96.9359C164.896 97.849 165.113 98.8056 165.196 99.7784C165.289 100.561 165.253 101.353 165.089 102.124C164.786 103.536 164.371 104.922 163.845 106.267L163.771 106.226C163.771 106.226 143.575 125.593 142.116 126.944C140.807 128.187 114.562 125.469 109.308 124.913C107.515 124.658 105.706 124.536 103.896 124.549C101.617 124.648 101.211 124.971 98.9238 124.996C93.4929 125.015 88.0722 125.469 82.7141 126.355C77.4683 127.242 74.5843 131.328 72.9683 136.408C67.6563 152.982 53.3029 191.932 51.1565 213.976C49.5564 216.881 48.1097 219.869 46.8223 222.926C45.3389 226.978 45.7035 227.119 46.2008 227.21C47.5433 227.459 49.0847 220.191 49.6648 221.94C50.2449 223.688 46.7477 230.616 48.1648 230.815C50.0046 231.08 51.4797 223.44 51.6537 222.801C51.8278 222.163 52.7559 222.395 52.5653 222.959C52.3001 223.788 49.698 232.406 51.5046 232.688C52.5073 232.837 52.6151 231.031 52.6151 231.031C52.6151 231.031 54.4548 222.743 55.3084 222.934C56.162 223.125 55.2587 227.981 54.8277 229.605C54.3968 231.229 55.0018 232.091 55.8636 231.66C56.4603 231.387 57.8774 226.439 58.2669 224.823C58.6564 223.207 59.6177 218.757 60.9271 221.343C62.2365 223.928 64.2419 225.42 65.0707 225.486C65.2615 225.478 65.4446 225.409 65.5939 225.29C65.7432 225.171 65.8509 225.008 65.9016 224.824C65.9522 224.639 65.9432 224.444 65.8758 224.265C65.8084 224.087 65.6861 223.934 65.5265 223.829C64.8253 223.145 64.2228 222.367 63.7364 221.517C63.3199 220.848 63.0175 220.114 62.8414 219.346C62.4743 217.81 62.2606 216.241 62.2033 214.663L62.0458 213.71C64.1176 203.451 71.1617 168.479 79.7224 149.236L82.2085 161.369L83.7417 166.747L74.3191 190.034L114.487 189.504L108.495 166.432L115.772 142.399C123.653 142.573 143.873 142.872 147.263 141.347C151.498 139.457 173.434 111.811 173.434 111.811C174.878 110.702 176.261 109.515 177.577 108.256C177.577 108.256 178.845 107.162 178.041 106.334Z" fill="#FFBE9D"/>
<path d="M72.5702 172.913C73.7304 168.935 79.7137 149.261 79.7137 149.261C79.7137 149.261 82.6557 165.297 81.885 167.228C81.1726 168.884 80.3273 170.481 79.3574 172.001C72.5702 182.344 73.4569 187.515 73.4569 187.515L114.487 186.263C114.586 180.529 111.172 167.203 110.476 165.057C109.78 162.91 112.133 155.941 112.133 155.941C112.133 155.941 116.774 151.234 116.592 148.814C116.495 146.64 116.218 144.478 115.763 142.35L146.152 142.93L142.754 126.413L113.451 124.267L103.705 123.355C98.7991 127.499 91.4484 123.355 91.4484 123.355C82.1005 124.267 80.7331 125.767 76.8961 129.604C72.3382 134.145 60.0234 168.893 60.0234 168.893L72.5702 172.913Z" fill="#0B56A4"/>
<path d="M96.8363 168.909C96.1225 169.033 95.396 169.069 94.6734 169.017C93.3308 169.017 91.4911 168.925 89.4607 168.726C87.4304 168.528 85.6072 168.229 84.2978 167.972C83.5789 167.883 82.8743 167.702 82.2012 167.434C82.9218 167.431 83.6408 167.5 84.3476 167.641C85.6735 167.807 87.4884 168.039 89.5105 168.246C91.5325 168.453 93.3557 168.586 94.6817 168.677C95.4059 168.68 96.1279 168.758 96.8363 168.909Z" fill="#263238"/>
<path d="M99.6375 165.42C98.9267 165.767 98.1749 166.023 97.3999 166.182C95.5573 166.67 93.6825 167.027 91.7895 167.251C89.898 167.479 87.9925 167.57 86.0879 167.525C85.2976 167.548 84.5073 167.476 83.7344 167.309C84.5137 167.199 85.3013 167.157 86.0879 167.185C87.5382 167.135 89.5354 167.036 91.7398 166.771C93.9442 166.506 95.8834 166.149 97.3253 165.851C98.0817 165.639 98.8555 165.495 99.6375 165.42Z" fill="#263238"/>
<path d="M113.442 149.857C113.433 150.562 113.338 151.264 113.16 151.946C112.92 153.23 112.547 154.987 112.075 156.918C111.602 158.849 111.122 160.581 110.741 161.832C110.581 162.519 110.339 163.184 110.02 163.813C110.07 163.11 110.2 162.415 110.409 161.741C110.757 160.299 111.163 158.642 111.602 156.81C112.042 154.979 112.473 153.321 112.829 151.838C112.958 151.157 113.164 150.493 113.442 149.857Z" fill="#263238"/>
<path d="M73.1842 187.796L114.206 186.545L132.056 256.257L128.741 336.219H107.029L109.739 257.989L93.869 209.426L96.2805 337.048L74.3527 337.371L72.1069 217.547C72.0157 214.158 70.8969 206.5 71.2781 203.136L73.1842 187.796Z" fill="#455A64"/>
<path d="M99.3378 210.411C98.6643 210.458 97.9875 210.42 97.324 210.295C96.0892 210.146 94.3904 209.889 92.534 209.516C90.6777 209.143 89.0037 208.687 87.8103 208.381C87.149 208.239 86.5085 208.013 85.9043 207.709C85.9043 207.577 88.9208 208.298 92.6252 209.043C96.3296 209.789 99.3544 210.27 99.3378 210.411Z" fill="#263238"/>
<path d="M128.567 331.836C128.567 331.969 123.653 332.076 117.587 332.076C111.521 332.076 107.203 331.886 107.203 331.753C107.203 331.621 111.521 331.596 117.587 331.596C123.653 331.596 128.567 331.745 128.567 331.836Z" fill="#263238"/>
<path d="M95.9743 332.076C95.9743 332.209 91.2009 332.317 85.317 332.317C79.4331 332.317 74.668 332.209 74.668 332.076C74.668 331.944 79.4331 331.836 85.317 331.836C91.2009 331.836 95.9743 331.944 95.9743 332.076Z" fill="#263238"/>
<path d="M93.2969 332.075C93.1643 332.075 92.5842 304.487 92.0041 270.452C91.424 236.417 91.0677 208.829 91.1754 208.82C91.2831 208.812 91.913 236.441 92.4931 270.419C93.0732 304.396 93.4295 332.067 93.2969 332.075Z" fill="#263238"/>
<path d="M125.651 331.836C125.642 331.709 125.642 331.581 125.651 331.454C125.651 331.181 125.651 330.816 125.651 330.344C125.651 329.349 125.717 327.916 125.775 326.084C125.899 322.363 126.09 317.018 126.314 310.422C126.819 297.162 127.523 278.93 128.294 258.743C128.294 258.552 128.294 258.37 128.294 258.196V258.262C123.43 238.796 119.037 221.194 115.863 208.431L112.176 193.349C111.753 191.584 111.421 190.208 111.198 189.205C111.093 188.758 111.01 188.401 110.949 188.136C110.918 188.016 110.896 187.895 110.883 187.771C110.935 187.885 110.974 188.005 110.999 188.128C111.065 188.385 111.165 188.733 111.289 189.18C111.538 190.142 111.902 191.517 112.358 193.274C113.278 196.846 114.595 201.984 116.22 208.324C119.443 221.078 123.885 238.663 128.808 258.121V258.196C128.808 258.362 128.808 258.552 128.808 258.735C127.979 278.905 127.233 297.162 126.686 310.405C126.396 317.035 126.156 322.347 125.99 326.068C125.899 327.899 125.825 329.325 125.775 330.327C125.775 330.791 125.725 331.156 125.709 331.43C125.703 331.567 125.684 331.703 125.651 331.836Z" fill="#263238"/>
<path d="M118.572 256.572C117.011 257.083 115.404 257.441 113.774 257.641C111.785 257.981 110.061 258.213 109.307 258.263V258.072C109.556 258.139 109.688 258.197 109.68 258.23C109.672 258.263 109.531 258.23 109.274 258.23H108.719L109.274 258.064C109.995 257.848 111.702 257.5 113.699 257.152C115.301 256.8 116.933 256.606 118.572 256.572Z" fill="#263238"/>
<path d="M118.158 259.231C116.715 259.289 115.271 259.222 113.84 259.032C112.396 258.995 110.957 258.837 109.539 258.56C110.98 258.363 112.441 258.363 113.882 258.56C115.331 258.588 116.77 258.814 118.158 259.231Z" fill="#263238"/>
<path d="M73.002 189.263C73.9881 190.664 75.4052 191.153 77.0461 191.418C78.6999 191.615 80.3729 191.584 82.0184 191.327C92.6094 190.15 103.83 189.064 114.197 186.545C100.772 187.291 86.6012 187.042 73.176 187.796C73.176 187.796 73.06 188.716 73.0351 188.94" fill="#263238"/>
<path d="M86.8418 208.191L94.3997 237.553L93.8693 209.426L86.8418 208.191Z" fill="#263238"/>
<path d="M85.3159 102.944C82.3988 102.165 79.3492 105.272 79.2497 108.289C79.2497 109.118 79.3409 110.145 78.7276 110.775C78.1144 111.405 77.0205 111.231 76.1006 111.305C75.161 111.399 74.2816 111.811 73.6079 112.472C72.9343 113.134 72.5068 114.006 72.3962 114.944C72.2636 116.286 72.8023 117.728 72.2388 118.955C71.6752 120.181 70.3742 120.678 69.4709 121.59C68.9228 122.21 68.5106 122.939 68.2609 123.728C68.0111 124.517 67.9293 125.35 68.0206 126.173C68.2166 127.817 68.6493 129.425 69.3051 130.946C69.8355 132.363 70.5316 133.938 71.957 134.443H84.2137L85.1336 129.819L86.6336 134.443H88.6308L87.5535 104.419C87.5535 104.419 87.5452 103.532 85.3159 102.944Z" fill="#263238"/>
<path d="M68.5507 117.28C68.5507 117.28 68.4181 117.28 68.2192 117.346C68.0768 117.424 67.9683 117.552 67.9147 117.705C67.8611 117.858 67.8663 118.025 67.9292 118.175C68.083 118.513 68.3602 118.78 68.7042 118.921C69.0482 119.062 69.433 119.066 69.78 118.933C70.127 118.799 70.41 118.539 70.5712 118.204C70.7324 117.869 70.7597 117.485 70.6474 117.131C70.4726 116.733 70.2469 116.36 69.9761 116.02C69.3482 115.183 69.0771 114.131 69.222 113.095C69.2962 112.52 69.5024 111.971 69.8244 111.489C70.1465 111.007 70.5756 110.607 71.0783 110.319C71.6162 110.004 72.2211 109.821 72.8434 109.785C73.4657 109.749 74.0877 109.861 74.6584 110.111C75.7854 110.6 76.7633 111.321 77.8489 111.172C78.0936 111.163 78.332 111.091 78.542 110.965C78.752 110.839 78.9269 110.663 79.0506 110.451C79.2251 109.98 79.282 109.474 79.2163 108.976C79.1509 108.025 79.2894 107.071 79.6224 106.178C79.9554 105.285 80.4752 104.473 81.1472 103.797C82.0934 102.91 83.3482 102.429 84.6444 102.454C84.988 102.464 85.3284 102.522 85.6554 102.628C85.7729 102.657 85.8849 102.704 85.9869 102.769C85.544 102.685 85.0951 102.635 84.6444 102.62C83.4016 102.648 82.2163 103.149 81.3295 104.02C80.703 104.678 80.2231 105.462 79.9217 106.319C79.6202 107.176 79.5041 108.087 79.5809 108.993C79.6549 109.553 79.5865 110.123 79.3821 110.65C79.2294 110.925 79.0095 111.157 78.7427 111.324C78.476 111.49 78.1713 111.586 77.8572 111.603C77.243 111.662 76.6244 111.553 76.0672 111.288C75.5037 111.048 74.9898 110.741 74.4595 110.518C73.9498 110.294 73.3949 110.194 72.8393 110.224C72.2838 110.254 71.743 110.414 71.2606 110.692C70.8115 110.95 70.4283 111.309 70.1408 111.741C69.8533 112.172 69.6693 112.664 69.6032 113.178C69.4607 114.123 69.6991 115.085 70.2662 115.854C70.5492 116.222 70.7806 116.626 70.954 117.056C71.0321 117.27 71.0664 117.498 71.055 117.726C71.0436 117.953 70.9867 118.177 70.8877 118.382C70.7162 118.746 70.4231 119.039 70.059 119.211C69.726 119.359 69.3542 119.397 68.9982 119.318C68.7147 119.265 68.4514 119.134 68.2367 118.941C68.022 118.748 67.8641 118.501 67.78 118.225C67.7193 118.047 67.7284 117.854 67.8053 117.683C67.8823 117.512 68.0214 117.377 68.1944 117.305C68.4347 117.189 68.559 117.28 68.5507 117.28Z" fill="#263238"/>
<path d="M116.028 142.084C115.715 142.128 115.397 142.128 115.083 142.084C114.221 141.98 113.381 141.737 112.597 141.363C111.427 140.815 110.384 140.03 109.531 139.059C108.448 137.884 107.719 136.427 107.426 134.856C107.132 133.285 107.288 131.663 107.873 130.176C108.326 128.965 109.026 127.861 109.929 126.935C110.527 126.307 111.224 125.781 111.992 125.377C112.264 125.214 112.561 125.097 112.871 125.029C111.869 125.601 110.953 126.312 110.152 127.143C109.315 128.062 108.667 129.138 108.246 130.308C107.701 131.729 107.557 133.272 107.83 134.769C108.103 136.266 108.784 137.658 109.796 138.794C110.606 139.74 111.591 140.519 112.697 141.09C113.757 141.57 114.878 141.905 116.028 142.084Z" fill="#263238"/>
</svg>
